<?xml version="1.0" encoding="utf-8"?>
<!-- Generator: Adobe Illustrator 28.2.0, SVG Export Plug-In . SVG Version: 6.00 Build 0)  -->
<svg version="1.1" id="Layer_1" xmlns="http://www.w3.org/2000/svg" xmlns:xlink="http://www.w3.org/1999/xlink" x="0px" y="0px"
	 viewBox="0 0 109 51" style="enable-background:new 0 0 109 51;" xml:space="preserve">
<style type="text/css">
	.st0{fill:#FFFFFF;}
</style>
<g>
	<g>
		<polygon points="23.25,45.01 23.25,26.53 12.18,26.53 12.18,45.01 3.01,45.01 3.01,1.36 12.18,1.36 12.18,18.85 23.25,18.85 
			23.25,1.36 32.4,1.36 32.4,45.01 		"/>
		<path class="st0" d="M31.9,1.86v42.66h-8.14V26.03H11.68v18.49H3.51V1.86h8.17v17.49h12.07V1.86H31.9 M32.9,0.86h-1h-8.14h-1v1
			v16.49H12.68V1.86v-1h-1H3.51h-1v1v42.66v1h1h8.17h1v-1V27.03h10.07v17.49v1h1h8.14h1v-1V1.86V0.86L32.9,0.86z"/>
	</g>
	<g>
		<polygon points="49.62,45.01 49.59,29.51 36.08,1.36 46.23,1.36 54.31,20.24 62.39,1.36 72.57,1.36 58.85,29.86 58.82,45.01 		"/>
		<path class="st0" d="M71.77,1.86L58.35,29.75l-0.03,14.77h-8.2L50.09,29.4L36.88,1.86h9.02l8.41,19.66l8.41-19.66H71.77
			 M73.36,0.86h-1.59h-9.05h-0.66L61.8,1.46l-7.49,17.51L46.82,1.46l-0.26-0.61H45.9h-9.02h-1.59l0.69,1.43l13.11,27.33l0.03,14.89
			l0,1h1h8.2h1l0-1l0.03-14.54L72.67,2.29L73.36,0.86L73.36,0.86z"/>
	</g>
	<g>
		<path d="M95.32,48.04c-0.67,0-1.35-0.06-2.01-0.17c-0.54-0.08-1.07-0.44-1.5-1.05c-1.65-3.14-3.36-5.99-6.47-7.08
			c-0.81-0.29-1.64-0.44-2.48-0.44c-2.5,0-5.17,1.32-7.52,3.71c-0.43,0.43-1.01,0.66-1.64,0.66c-0.45,0-0.88-0.12-1.26-0.35
			c-3.02-1.73-2.95-5.78-1.61-8.81l0.08-0.19l0.19-0.08c0.51-0.2,1.03-0.4,1.54-0.61c2.44-0.98,4.95-2,7.7-2.15l1.37-0.08l-1,0.94
			c-0.09,0.08-0.19,0.17-0.29,0.26c-0.43,0.37-0.69,0.61-0.64,0.91c0.01,0.1,0.09,0.21,0.63,0.32c4.9,1,9.07,3.99,12.38,8.88
			c0.37,0.31,0.73,0.53,1.05,0.62c0.78,0.24,1.6,0.36,2.47,0.36c1.56,0,3.34-0.7,3.83-2.26c0.06-0.16,0.02-0.36-0.08-0.52
			c-0.09-0.14-0.22-0.23-0.34-0.24c-4.58-0.45-7.65-2.57-8.66-5.98c-0.58-1.91-0.41-3.8-0.24-5.64c0.07-0.74,0.14-1.51,0.16-2.25
			c0.03-1.44-1.37-2.58-2.57-3.1c-0.21-0.06-0.48-0.1-0.77-0.1c-0.27,0-0.54,0.03-0.81,0.1c-0.57,0.12-1.05,0.28-1.44,0.48
			c-0.48,0.22-0.83,0.44-1.12,0.67c-0.34,0.28-0.65,0.57-0.96,0.88l-0.2,0.2l-7.2-1.79l2.53-22.53h24.62v7.91H86.05l-0.88,8.01
			c0.55-0.25,1.16-0.48,1.83-0.69c1.12-0.38,2.47-0.58,3.99-0.58c1.19,0,2.14,0.08,3,0.24c1.21,0.2,2.23,0.84,2.93,1.85
			c0.98,1.42,1.32,3.52,0.9,5.62c-0.11,0.57-0.35,1.21-0.6,1.88c-0.45,1.21-0.96,2.58-0.57,3.34c0.15,0.3,0.46,0.51,0.93,0.64
			c0.61,0.16,1.27,0.24,1.97,0.32c1.71,0.2,3.48,0.41,4.76,1.98c2.44,2.99,2.72,7.27,0.68,10.65C103.01,46.1,99.4,48.04,95.32,48.04
			z"/>
		<path class="st0" d="M102.56,2.15v6.91H85.6l-1.03,9.38c0.62-0.35,1.46-0.73,2.58-1.08c1.11-0.38,2.4-0.56,3.84-0.56
			c1.03,0,1.99,0.06,2.9,0.23c3.19,0.53,3.98,4.1,3.43,6.88c-0.41,2.11-2.81,5.62,0.12,6.44c2.2,0.59,4.83,0.12,6.47,2.14
			c2.34,2.87,2.55,6.91,0.64,10.08c-1.99,3.28-5.59,4.96-9.23,4.96c-0.65,0-1.29-0.05-1.93-0.16c-0.41-0.06-0.82-0.35-1.17-0.85
			c-1.55-2.96-3.37-6.09-6.71-7.27c-0.89-0.32-1.77-0.47-2.64-0.47c-2.95,0-5.73,1.67-7.87,3.86c-0.34,0.34-0.81,0.51-1.28,0.51
			c-0.35,0-0.7-0.09-1-0.28c-2.87-1.64-2.58-5.54-1.41-8.17c2.96-1.14,5.86-2.55,9.08-2.72c-0.47,0.44-1.2,0.88-1.08,1.61
			c0.06,0.5,0.59,0.64,1.03,0.73c5.3,1.08,9.26,4.51,12.1,8.73c0.44,0.38,0.88,0.64,1.29,0.76c0.85,0.26,1.73,0.38,2.61,0.38
			c1.76,0,3.75-0.82,4.31-2.61c0.21-0.59-0.23-1.35-0.85-1.41c-3.57-0.35-7.12-1.88-8.23-5.62c-0.79-2.58-0.12-5.16-0.06-7.73
			c0.03-1.61-1.41-2.93-2.87-3.57c-0.32-0.1-0.65-0.15-0.97-0.15s-0.64,0.04-0.93,0.12c-0.59,0.12-1.11,0.29-1.55,0.53
			c-0.44,0.21-0.85,0.44-1.2,0.73s-0.67,0.59-1,0.91l-6.5-1.61l2.43-21.65H102.56 M103.56,1.15h-1H78.89H78l-0.1,0.89l-2.43,21.65
			l-0.1,0.87l0.85,0.21l6.5,1.61l0.55,0.14l0.4-0.4c0.3-0.3,0.59-0.57,0.93-0.85c0.25-0.21,0.57-0.4,0.98-0.59l0.02-0.01l0.02-0.01
			c0.35-0.18,0.78-0.33,1.28-0.43c0.28-0.07,0.51-0.1,0.73-0.1c0.22,0,0.43,0.03,0.62,0.08c1.13,0.51,2.24,1.51,2.22,2.62
			c-0.02,0.72-0.08,1.45-0.16,2.21c-0.18,1.88-0.36,3.83,0.26,5.83c1.07,3.59,4.28,5.84,9.04,6.32c0.02,0.03,0.05,0.08,0.05,0.11
			c-0.41,1.32-2.03,1.92-3.36,1.92c-0.82,0-1.59-0.11-2.31-0.34c-0.25-0.07-0.54-0.24-0.83-0.48c-3.38-4.97-7.64-8.01-12.65-9.04
			c-0.05-0.01-0.09-0.02-0.13-0.03c0.1-0.11,0.25-0.24,0.36-0.33c0.11-0.09,0.21-0.18,0.31-0.27l2-1.88l-2.74,0.15
			c-2.83,0.15-5.38,1.19-7.86,2.18c-0.51,0.21-1.02,0.41-1.53,0.61l-0.39,0.15l-0.17,0.38c-1.43,3.23-1.48,7.56,1.82,9.45
			c0.44,0.26,0.96,0.41,1.5,0.41c0.76,0,1.47-0.29,1.99-0.8c2.26-2.31,4.8-3.57,7.17-3.57c0.78,0,1.56,0.14,2.3,0.41
			c2.94,1.03,4.59,3.8,6.16,6.79l0.03,0.06l0.04,0.05c0.51,0.73,1.15,1.16,1.85,1.26c0.67,0.11,1.37,0.17,2.07,0.17
			c4.25,0,8.02-2.04,10.09-5.44c2.14-3.56,1.85-8.07-0.73-11.23c-1.41-1.73-3.36-1.96-5.09-2.16c-0.68-0.08-1.32-0.15-1.9-0.31
			c-0.48-0.13-0.58-0.32-0.61-0.39c-0.29-0.56,0.22-1.93,0.6-2.94c0.26-0.69,0.5-1.35,0.62-1.96c0.45-2.23,0.08-4.47-0.98-6
			c-0.78-1.12-1.91-1.84-3.27-2.06c-0.86-0.17-1.85-0.25-3.06-0.25c-1.58,0-2.98,0.21-4.16,0.61c-0.37,0.12-0.73,0.24-1.07,0.37
			l0.73-6.72h16.07h1v-1V2.15V1.15L103.56,1.15z"/>
	</g>
</g>
</svg>
